<svg
  xmlns="http://www.w3.org/2000/svg"
  xmlns:xlink="http://www.w3.org/1999/xlink"
  width="840"
  height="494.2"
>
  <rect width="840" height="494.2" rx="5" ry="5" class="a" />
  <svg y="0%" x="0%">
    <circle cx="20" cy="20" r="6" fill="#ff5f58" />
    <circle cx="40" cy="20" r="6" fill="#ffbd2e" />
    <circle cx="60" cy="20" r="6" fill="#18c132" />
  </svg>
  <svg
    height="434.2"
    viewBox="0 0 80 43.42"
    width="800"
    x="15"
    xmlns="http://www.w3.org/2000/svg"
    xmlns:xlink="http://www.w3.org/1999/xlink"
    y="50"
  >
    <style>@keyframes o{0%{transform:translateX(0)}2.8%{transform:translateX(-80px)}10.2%{transform:translateX(-160px)}14.7%{transform:translateX(-240px)}17.2%{transform:translateX(-320px)}19.6%{transform:translateX(-400px)}22%{transform:translateX(-480px)}24.5%{transform:translateX(-560px)}26.4%{transform:translateX(-640px)}30.5%{transform:translateX(-720px)}30.9%{transform:translateX(-800px)}35.4%{transform:translateX(-880px)}37.1%{transform:translateX(-960px)}39.2%{transform:translateX(-1040px)}44%{transform:translateX(-1120px)}47.1%{transform:translateX(-1200px)}49.9%{transform:translateX(-1520px)}50%{transform:translateX(-1600px)}to{transform:translateX(-1680px)}}.a{fill:#282d35}.f,.g,.h{white-space:pre}.f{fill:#a8cc8c;font-weight:700}.g,.h{fill:#b9c0cb}.h{fill:#71bef2;font-weight:700}.i,.j,.k,.l{fill:#0087d7;white-space:pre}.j,.k,.l{fill:#949494}.k,.l{fill:#6c6c6c}.l{fill:#d75f00}</style>
    <g
      font-family="Monaco,Consolas,Menlo,'Bitstream Vera Sans Mono','Powerline Symbols',monospace"
      font-size="1.67"
    >
      <defs>
        <symbol id="1">
          <text y="1.67" class="f">nick@MacBuntu</text>
          <text x="13.026" y="1.67" class="g">:</text>
          <text x="14.028" y="1.67" class="h">/tmp</text>
          <text x="18.036" y="1.67" class="g">$</text>
        </symbol>
        <symbol id="2">
          <text y="1.67" class="f">nick@MacBuntu</text>
          <text x="13.026" y="1.67" class="g">:</text>
          <text x="14.028" y="1.67" class="h">/tmp</text>
          <text x="18.036" y="1.67" class="g">$</text>
          <text x="20.04" y="1.67" class="g">./example-cli</text>
        </symbol>
        <symbol id="3">
          <text x="2.004" y="1.67" class="i">_______</text>
          <text x="11.022" y="1.67" class="i">__</text>
          <text x="17.034" y="1.67" class="i">_</text>
          <text x="22.044" y="1.67" class="i">__</text>
          <text x="26.052" y="1.67" class="i">__</text>
          <text x="29.058" y="1.67" class="i">____</text>
          <text x="35.07" y="1.67" class="i">_</text>
          <text x="41.082" y="1.67" class="i">_____</text>
          <text x="53.106" y="1.67" class="i">____</text>
          <text x="58.116" y="1.67" class="i">_</text>
          <text x="64.128" y="1.67" class="i">___</text>
        </symbol>
        <symbol id="4">
          <text x="1.002" y="1.67" class="i">|</text>
          <text x="3.006" y="1.67" class="i">____\</text>
          <text x="9.018" y="1.67" class="i">\/</text>
          <text x="12.024" y="1.67" class="i">/</text>
          <text x="16.032" y="1.67" class="i">/</text>
          <text x="18.036" y="1.67" class="i">\</text>
          <text x="21.042" y="1.67" class="i">|</text>
          <text x="24.048" y="1.67" class="i">\/</text>
          <text x="28.056" y="1.67" class="i">|</text>
          <text x="31.062" y="1.67" class="i">_</text>
          <text x="33.066" y="1.67" class="i">\|</text>
          <text x="36.072" y="1.67" class="i">|</text>
          <text x="40.08" y="1.67" class="i">|</text>
          <text x="42.084" y="1.67" class="i">____|</text>
          <text x="52.104" y="1.67" class="i">/</text>
          <text x="54.108" y="1.67" class="i">___|</text>
          <text x="59.118" y="1.67" class="i">|</text>
          <text x="63.126" y="1.67" class="i">|_</text>
          <text x="66.132" y="1.67" class="i">_|</text>
        </symbol>
        <symbol id="5">
          <text x="1.002" y="1.67" class="i">|</text>
          <text x="4.008" y="1.67" class="i">_|</text>
          <text x="8.016" y="1.67" class="i">\</text>
          <text x="11.022" y="1.67" class="i">/</text>
          <text x="15.03" y="1.67" class="i">/</text>
          <text x="17.034" y="1.67" class="i">_</text>
          <text x="19.038" y="1.67" class="i">\</text>
          <text x="21.042" y="1.67" class="i">|</text>
          <text x="23.046" y="1.67" class="i">|\/|</text>
          <text x="28.056" y="1.67" class="i">|</text>
          <text x="30.06" y="1.67" class="i">|_)</text>
          <text x="34.068" y="1.67" class="i">|</text>
          <text x="36.072" y="1.67" class="i">|</text>
          <text x="40.08" y="1.67" class="i">|</text>
          <text x="43.086" y="1.67" class="i">_|</text>
          <text x="46.092" y="1.67" class="i">_____|</text>
          <text x="53.106" y="1.67" class="i">|</text>
          <text x="57.114" y="1.67" class="i">|</text>
          <text x="59.118" y="1.67" class="i">|</text>
          <text x="64.128" y="1.67" class="i">|</text>
          <text x="66.132" y="1.67" class="i">|</text>
        </symbol>
        <symbol id="6">
          <text x="1.002" y="1.67" class="i">|</text>
          <text x="3.006" y="1.67" class="i">|___</text>
          <text x="8.016" y="1.67" class="i">/</text>
          <text x="11.022" y="1.67" class="i">\</text>
          <text x="14.028" y="1.67" class="i">/</text>
          <text x="16.032" y="1.67" class="i">___</text>
          <text x="20.04" y="1.67" class="i">\|</text>
          <text x="23.046" y="1.67" class="i">|</text>
          <text x="26.052" y="1.67" class="i">|</text>
          <text x="28.056" y="1.67" class="i">|</text>
          <text x="31.062" y="1.67" class="i">__/|</text>
          <text x="36.072" y="1.67" class="i">|___|</text>
          <text x="42.084" y="1.67" class="i">|__|_____|</text>
          <text x="53.106" y="1.67" class="i">|___|</text>
          <text x="59.118" y="1.67" class="i">|___</text>
          <text x="64.128" y="1.67" class="i">|</text>
          <text x="66.132" y="1.67" class="i">|</text>
        </symbol>
        <symbol id="7">
          <text x="1.002" y="1.67" class="i">|_____/_/\_\/_/</text>
          <text x="19.038" y="1.67" class="i">\_\_|</text>
          <text x="26.052" y="1.67" class="i">|_|_|</text>
          <text x="34.068" y="1.67" class="i">|_____|_____|</text>
          <text x="52.104" y="1.67" class="i">\____|_____|___|</text>
        </symbol>
        <symbol id="8">
          <text x="2.004" y="1.67" class="j">Simple</text>
          <text x="9.018" y="1.67" class="j">example</text>
          <text x="17.034" y="1.67" class="j">CLI</text>
          <text x="21.042" y="1.67" class="j">using</text>
          <text x="27.054" y="1.67" class="j">dynamic-cli-framework.</text>
        </symbol>
        <symbol id="9">
          <text x="2.004" y="1.67" class="k">version:</text>
          <text x="11.022" y="1.67" class="k">1.0.9</text>
        </symbol>
        <symbol id="10">
          <text y="1.67" class="l">No</text>
          <text x="3.006" y="1.67" class="l">command</text>
          <text x="11.022" y="1.67" class="l">specified</text>
        </symbol>
        <symbol id="11">
          <text y="1.67" class="k">Try</text>
          <text x="4.008" y="1.67" class="k">running:</text>
        </symbol>
        <symbol id="12">
          <text x="2.004" y="1.67" class="j">example-cli</text>
          <text x="14.028" y="1.67" class="g">--</text>
          <text x="16.032" y="1.67" class="j">help</text>
        </symbol>
        <symbol id="a"><path fill="transparent" d="M0 0h80v21H0z" /></symbol>
        <symbol id="b"><path fill="#6f7683" d="M0 0h1.102v2.171H0z" /></symbol>
      </defs>
      <path class="a" d="M0 0h80v43.42H0z" />
      <g
        style="animation-duration: 7.327257s; animation-iteration-count: infinite; animation-name: o; animation-timing-function: steps(1, end)"
      >
        <svg width="1760">
          <svg>
            <use xlink:href="#a" />
            <use xlink:href="#b" x="-.004" />
          </svg>
          <svg x="80">
            <use xlink:href="#a" />
            <use xlink:href="#b" x="19.996" />
            <use xlink:href="#1" />
          </svg>
          <svg x="160">
            <use xlink:href="#a" />
            <use xlink:href="#b" x="20.996" />
            <text y="1.67" class="f">nick@MacBuntu</text>
            <text x="13.026" y="1.67" class="g">:</text>
            <text x="14.028" y="1.67" class="h">/tmp</text>
            <text x="18.036" y="1.67" class="g">$</text>
            <text x="20.04" y="1.67" class="g">.</text>
          </svg>
          <svg x="240">
            <use xlink:href="#a" />
            <use xlink:href="#b" x="21.996" />
            <text y="1.67" class="f">nick@MacBuntu</text>
            <text x="13.026" y="1.67" class="g">:</text>
            <text x="14.028" y="1.67" class="h">/tmp</text>
            <text x="18.036" y="1.67" class="g">$</text>
            <text x="20.04" y="1.67" class="g">./</text>
          </svg>
          <svg x="320">
            <use xlink:href="#a" />
            <use xlink:href="#b" x="22.996" />
            <text y="1.67" class="f">nick@MacBuntu</text>
            <text x="13.026" y="1.67" class="g">:</text>
            <text x="14.028" y="1.67" class="h">/tmp</text>
            <text x="18.036" y="1.67" class="g">$</text>
            <text x="20.04" y="1.67" class="g">./e</text>
          </svg>
          <svg x="400">
            <use xlink:href="#a" />
            <use xlink:href="#b" x="23.996" />
            <text y="1.67" class="f">nick@MacBuntu</text>
            <text x="13.026" y="1.67" class="g">:</text>
            <text x="14.028" y="1.67" class="h">/tmp</text>
            <text x="18.036" y="1.67" class="g">$</text>
            <text x="20.04" y="1.67" class="g">./ex</text>
          </svg>
          <svg x="480">
            <use xlink:href="#a" />
            <use xlink:href="#b" x="24.996" />
            <text y="1.67" class="f">nick@MacBuntu</text>
            <text x="13.026" y="1.67" class="g">:</text>
            <text x="14.028" y="1.67" class="h">/tmp</text>
            <text x="18.036" y="1.67" class="g">$</text>
            <text x="20.04" y="1.67" class="g">./exa</text>
          </svg>
          <svg x="560">
            <use xlink:href="#a" />
            <use xlink:href="#b" x="25.996" />
            <text y="1.67" class="f">nick@MacBuntu</text>
            <text x="13.026" y="1.67" class="g">:</text>
            <text x="14.028" y="1.67" class="h">/tmp</text>
            <text x="18.036" y="1.67" class="g">$</text>
            <text x="20.04" y="1.67" class="g">./exam</text>
          </svg>
          <svg x="640">
            <use xlink:href="#a" />
            <use xlink:href="#b" x="26.996" />
            <text y="1.67" class="f">nick@MacBuntu</text>
            <text x="13.026" y="1.67" class="g">:</text>
            <text x="14.028" y="1.67" class="h">/tmp</text>
            <text x="18.036" y="1.67" class="g">$</text>
            <text x="20.04" y="1.67" class="g">./examp</text>
          </svg>
          <svg x="720">
            <use xlink:href="#a" />
            <use xlink:href="#b" x="27.996" />
            <text y="1.67" class="f">nick@MacBuntu</text>
            <text x="13.026" y="1.67" class="g">:</text>
            <text x="14.028" y="1.67" class="h">/tmp</text>
            <text x="18.036" y="1.67" class="g">$</text>
            <text x="20.04" y="1.67" class="g">./exampl</text>
          </svg>
          <svg x="800">
            <use xlink:href="#a" />
            <use xlink:href="#b" x="28.996" />
            <text y="1.67" class="f">nick@MacBuntu</text>
            <text x="13.026" y="1.67" class="g">:</text>
            <text x="14.028" y="1.67" class="h">/tmp</text>
            <text x="18.036" y="1.67" class="g">$</text>
            <text x="20.04" y="1.67" class="g">./example</text>
          </svg>
          <svg x="880">
            <use xlink:href="#a" />
            <use xlink:href="#b" x="29.996" />
            <text y="1.67" class="f">nick@MacBuntu</text>
            <text x="13.026" y="1.67" class="g">:</text>
            <text x="14.028" y="1.67" class="h">/tmp</text>
            <text x="18.036" y="1.67" class="g">$</text>
            <text x="20.04" y="1.67" class="g">./example-</text>
          </svg>
          <svg x="960">
            <use xlink:href="#a" />
            <use xlink:href="#b" x="30.996" />
            <text y="1.67" class="f">nick@MacBuntu</text>
            <text x="13.026" y="1.67" class="g">:</text>
            <text x="14.028" y="1.67" class="h">/tmp</text>
            <text x="18.036" y="1.67" class="g">$</text>
            <text x="20.04" y="1.67" class="g">./example-c</text>
          </svg>
          <svg x="1040">
            <use xlink:href="#a" />
            <use xlink:href="#b" x="31.996" />
            <text y="1.67" class="f">nick@MacBuntu</text>
            <text x="13.026" y="1.67" class="g">:</text>
            <text x="14.028" y="1.67" class="h">/tmp</text>
            <text x="18.036" y="1.67" class="g">$</text>
            <text x="20.04" y="1.67" class="g">./example-cl</text>
          </svg>
          <svg x="1120">
            <use xlink:href="#a" />
            <use xlink:href="#b" x="32.996" />
            <use xlink:href="#2" />
          </svg>
          <svg x="1200">
            <use xlink:href="#a" />
            <use xlink:href="#b" x="-.004" y="2.146" />
            <use xlink:href="#2" />
          </svg>
          <svg x="1280">
            <use xlink:href="#a" />
            <use xlink:href="#b" x="-.004" y="15.172" />
            <use xlink:href="#2" />
            <use xlink:href="#3" y="4.342" />
            <use xlink:href="#4" y="6.513" />
            <use xlink:href="#5" y="8.684" />
            <use xlink:href="#6" y="10.855" />
            <use xlink:href="#7" y="13.026" />
          </svg>
          <svg x="1360">
            <use xlink:href="#a" />
            <use xlink:href="#b" x="-.004" y="21.685" />
            <use xlink:href="#2" />
            <use xlink:href="#3" y="4.342" />
            <use xlink:href="#4" y="6.513" />
            <use xlink:href="#5" y="8.684" />
            <use xlink:href="#6" y="10.855" />
            <use xlink:href="#7" y="13.026" />
            <use xlink:href="#8" y="15.197" />
            <use xlink:href="#9" y="17.368" />
          </svg>
          <svg x="1440">
            <use xlink:href="#a" />
            <use xlink:href="#b" x="-.004" y="26.027" />
            <use xlink:href="#2" />
            <use xlink:href="#3" y="4.342" />
            <use xlink:href="#4" y="6.513" />
            <use xlink:href="#5" y="8.684" />
            <use xlink:href="#6" y="10.855" />
            <use xlink:href="#7" y="13.026" />
            <use xlink:href="#8" y="15.197" />
            <use xlink:href="#9" y="17.368" />
            <use xlink:href="#10" y="21.71" />
          </svg>
          <svg x="1520">
            <use xlink:href="#a" />
            <use xlink:href="#b" x="-.004" y="34.711" />
            <use xlink:href="#2" />
            <use xlink:href="#3" y="4.342" />
            <use xlink:href="#4" y="6.513" />
            <use xlink:href="#5" y="8.684" />
            <use xlink:href="#6" y="10.855" />
            <use xlink:href="#7" y="13.026" />
            <use xlink:href="#8" y="15.197" />
            <use xlink:href="#9" y="17.368" />
            <use xlink:href="#10" y="21.71" />
            <use xlink:href="#11" y="26.052" />
            <use xlink:href="#12" y="30.394" />
          </svg>
          <svg x="1600">
            <use xlink:href="#a" />
            <use xlink:href="#b" x="19.996" y="34.711" />
            <use xlink:href="#2" />
            <use xlink:href="#3" y="4.342" />
            <use xlink:href="#4" y="6.513" />
            <use xlink:href="#5" y="8.684" />
            <use xlink:href="#6" y="10.855" />
            <use xlink:href="#7" y="13.026" />
            <use xlink:href="#8" y="15.197" />
            <use xlink:href="#9" y="17.368" />
            <use xlink:href="#10" y="21.71" />
            <use xlink:href="#11" y="26.052" />
            <use xlink:href="#12" y="30.394" />
            <use xlink:href="#1" y="34.736" />
          </svg>
          <svg x="1680">
            <use xlink:href="#a" />
            <use xlink:href="#b" x="-.004" y="39.053" />
            <use xlink:href="#2" />
            <use xlink:href="#3" y="4.342" />
            <use xlink:href="#4" y="6.513" />
            <use xlink:href="#5" y="8.684" />
            <use xlink:href="#6" y="10.855" />
            <use xlink:href="#7" y="13.026" />
            <use xlink:href="#8" y="15.197" />
            <use xlink:href="#9" y="17.368" />
            <use xlink:href="#10" y="21.71" />
            <use xlink:href="#11" y="26.052" />
            <use xlink:href="#12" y="30.394" />
            <use xlink:href="#1" y="34.736" />
            <text y="38.577" class="g">exit</text>
          </svg>
        </svg>
      </g>
    </g>
  </svg>
</svg>
